<svg id="main" viewBox="0 0 512 512" xmlns="http://www.w3.org/2000/svg">
	<path fill="var(--color-secondary)"
		d="M171.252 403.4C171.252 405.4 168.877 407 165.884 407C162.477 407.3 160.103 405.7 160.103 403.4C160.103 401.4 162.477 399.8 165.471 399.8C168.568 399.5 171.252 401.1 171.252 403.4ZM139.148 398.9C138.426 400.9 140.49 403.2 143.587 403.8C146.271 404.8 149.368 403.8 149.987 401.8C150.606 399.8 148.645 397.5 145.548 396.6C142.865 395.9 139.871 396.9 139.148 398.9ZM184.774 397.2C181.781 397.9 179.716 399.8 180.026 402.1C180.335 404.1 183.019 405.4 186.116 404.7C189.11 404 191.174 402.1 190.865 400.1C190.555 398.2 187.768 396.9 184.774 397.2ZM252.697 14C109.523 14 0 119.3 0 258C0 368.9 72.0516 463.8 174.968 497.2C188.181 499.5 192.826 491.6 192.826 485.1C192.826 478.9 192.516 444.7 192.516 423.7C192.516 423.7 120.258 438.7 105.084 393.9C105.084 393.9 93.3161 364.8 76.3871 357.3C76.3871 357.3 52.7484 341.6 78.0387 341.9C78.0387 341.9 103.742 343.9 117.884 367.7C140.49 406.3 178.374 395.2 193.135 388.6C195.51 372.6 202.219 361.5 209.652 354.9C151.948 348.7 93.729 340.6 93.729 244.4C93.729 216.9 101.574 203.1 118.09 185.5C115.406 179 106.632 152.2 120.774 117.6C142.348 111.1 192 144.6 192 144.6C212.645 139 234.839 136.1 256.826 136.1C278.813 136.1 301.006 139 321.652 144.6C321.652 144.6 371.303 111 392.877 117.6C407.019 152.3 398.245 179 395.561 185.5C412.077 203.2 422.194 217 422.194 244.4C422.194 340.9 361.394 348.6 303.69 354.9C313.187 362.8 321.239 377.8 321.239 401.3C321.239 435 320.929 476.7 320.929 484.9C320.929 491.4 325.677 499.3 338.787 497C442.013 463.8 512 368.9 512 258C512 119.3 395.871 14 252.697 14ZM100.335 358.9C98.9935 359.9 99.3032 362.2 101.058 364.1C102.71 365.7 105.084 366.4 106.426 365.1C107.768 364.1 107.458 361.8 105.703 359.9C104.052 358.3 101.677 357.6 100.335 358.9ZM89.1871 350.8C88.4645 352.1 89.4968 353.7 91.5613 354.7C93.2129 355.7 95.2774 355.4 96 354C96.7226 352.7 95.6903 351.1 93.6258 350.1C91.5613 349.5 89.9097 349.8 89.1871 350.8ZM122.632 386.4C120.981 387.7 121.6 390.7 123.974 392.6C126.348 394.9 129.342 395.2 130.684 393.6C132.026 392.3 131.406 389.3 129.342 387.4C127.071 385.1 123.974 384.8 122.632 386.4ZM110.865 371.7C109.213 372.7 109.213 375.3 110.865 377.6C112.516 379.9 115.303 380.9 116.645 379.9C118.297 378.6 118.297 376 116.645 373.7C115.2 371.4 112.516 370.4 110.865 371.7Z" />
</svg>
