<svg id="main" viewBox="0 0 512 512" xmlns="http://www.w3.org/2000/svg">
	<path fill="var(--color-secondary)"
		d="M256.057 124.73C183.412 124.73 124.816 183.339 124.816 256C124.816 328.661 183.412 387.27 256.057 387.27C328.702 387.27 387.298 328.661 387.298 256C387.298 183.339 328.702 124.73 256.057 124.73ZM256.057 341.343C209.112 341.343 170.733 303.07 170.733 256C170.733 208.93 208.998 170.657 256.057 170.657C303.117 170.657 341.381 208.93 341.381 256C341.381 303.07 303.002 341.343 256.057 341.343ZM423.278 119.36C423.278 136.383 409.571 149.978 392.667 149.978C375.648 149.978 362.055 136.269 362.055 119.36C362.055 102.451 375.762 88.7417 392.667 88.7417C409.571 88.7417 423.278 102.451 423.278 119.36ZM510.201 150.435C508.259 109.421 498.893 73.0898 468.853 43.157C438.927 13.2241 402.604 3.85585 361.598 1.7994C319.336 -0.599799 192.664 -0.599799 150.402 1.7994C109.51 3.7416 73.1877 13.1099 43.1474 43.0427C13.107 72.9756 3.85499 109.306 1.799 150.321C-0.599665 192.593 -0.599665 319.293 1.799 361.565C3.74077 402.579 13.107 438.91 43.1474 468.843C73.1877 498.776 109.396 508.144 150.402 510.201C192.664 512.6 319.336 512.6 361.598 510.201C402.604 508.258 438.927 498.89 468.853 468.843C498.779 438.91 508.145 402.579 510.201 361.565C512.6 319.293 512.6 192.707 510.201 150.435ZM455.603 406.921C446.694 429.313 429.446 446.565 406.944 455.59C373.249 468.957 293.293 465.873 256.057 465.873C218.821 465.873 138.751 468.843 105.17 455.59C82.7824 446.679 65.5349 429.428 56.5113 406.921C43.1474 373.218 46.2313 293.245 46.2313 256C46.2313 218.755 43.2616 138.668 56.5113 105.079C65.4206 82.6866 82.6682 65.4352 105.17 56.4097C138.865 43.0427 218.821 46.1274 256.057 46.1274C293.293 46.1274 373.363 43.157 406.944 56.4097C429.332 65.321 446.579 82.5724 455.603 105.079C468.967 138.782 465.883 218.755 465.883 256C465.883 293.245 468.967 373.332 455.603 406.921Z" />
</svg>
